<svg width="19" height="23" viewBox="0 0 19 23" fill="none" xmlns="http://www.w3.org/2000/svg">
<path d="M13.6292 6.06135V4.82853C13.6292 4.71553 13.5403 4.62306 13.4316 4.62306H3.95048C3.84184 4.62306 3.75296 4.71553 3.75296 4.82853V6.06135C3.75296 6.17436 3.84184 6.26682 3.95048 6.26682H13.4316C13.5403 6.26682 13.6292 6.17436 13.6292 6.06135ZM3.95048 8.32152C3.84184 8.32152 3.75296 8.41398 3.75296 8.52699V9.7598C3.75296 9.87281 3.84184 9.96527 3.95048 9.96527H8.49353C8.60217 9.96527 8.69106 9.87281 8.69106 9.7598V8.52699C8.69106 8.41398 8.60217 8.32152 8.49353 8.32152H3.95048ZM13.2341 11.3008C10.2885 11.3008 7.90096 13.7844 7.90096 16.8485C7.90096 19.9126 10.2885 22.3962 13.2341 22.3962C16.1797 22.3962 18.5673 19.9126 18.5673 16.8485C18.5673 13.7844 16.1797 11.3008 13.2341 11.3008ZM15.8883 19.6095C15.1797 20.3466 14.2365 20.7524 13.2341 20.7524C12.2317 20.7524 11.2885 20.3466 10.5799 19.6095C9.87126 18.8724 9.48115 17.8913 9.48115 16.8485C9.48115 15.8057 9.87126 14.8246 10.5799 14.0875C11.2885 13.3504 12.2317 12.9446 13.2341 12.9446C14.2365 12.9446 15.1797 13.3504 15.8883 14.0875C16.597 14.8246 16.9871 15.8057 16.9871 16.8485C16.9871 17.8913 16.597 18.8724 15.8883 19.6095ZM15.4316 14.8965H14.3378C14.2736 14.8965 14.2143 14.9274 14.1773 14.9813L12.6094 17.2363L12.0391 16.417C12.0208 16.3906 11.9967 16.369 11.9688 16.3543C11.9409 16.3395 11.9099 16.332 11.8786 16.3323H10.7898C10.6293 16.3323 10.5354 16.5223 10.6293 16.6584L12.4514 19.2807C12.5304 19.3938 12.6909 19.3938 12.7699 19.2807L15.5896 15.2227C15.6859 15.0866 15.5921 14.8965 15.4316 14.8965ZM7.50591 19.9305H1.77772V1.84923H15.6044V10.6844C15.6044 10.7974 15.6933 10.8899 15.8019 10.8899H17.1846C17.2932 10.8899 17.3821 10.7974 17.3821 10.6844V0.821878C17.3821 0.367277 17.029 0 16.592 0H0.790096C0.353074 0 0 0.367277 0 0.821878V20.9579C0 21.4125 0.353074 21.7798 0.790096 21.7798H7.50591C7.61455 21.7798 7.70344 21.6873 7.70344 21.5743V20.136C7.70344 20.023 7.61455 19.9305 7.50591 19.9305Z" fill="white"/>
</svg>
