<svg width="23" height="25" viewBox="0 0 23 25" fill="none" xmlns="http://www.w3.org/2000/svg">
<path d="M21.817 12.7212C22.2906 12.0702 22.5527 11.2726 22.5527 10.4427C22.5527 9.12598 21.8452 7.87966 20.7062 7.18466C20.413 7.00576 20.0792 6.91161 19.7393 6.91194H12.9791L13.1483 3.30789C13.1877 2.43693 12.8917 1.60997 12.3166 0.979478C12.0344 0.668715 11.6939 0.421461 11.3162 0.252995C10.9385 0.0845291 10.5315 -0.00156893 10.1206 2.16424e-05C8.65463 2.16424e-05 7.35785 1.0264 6.96881 2.49558L4.54721 11.6157H0.902125C0.403145 11.6157 1.52588e-05 12.035 1.52588e-05 12.5541V23.2284C1.52588e-05 23.7474 0.403145 24.1668 0.902125 24.1668H17.8533C18.1127 24.1668 18.3664 24.114 18.6004 24.0084C19.9423 23.4131 20.8077 22.0495 20.8077 20.5364C20.8077 20.1669 20.757 19.8032 20.6555 19.4513C21.1291 18.8003 21.3913 18.0027 21.3913 17.1728C21.3913 16.8033 21.3405 16.4396 21.2391 16.0877C21.7127 15.4367 21.9748 14.6391 21.9748 13.8092C21.9692 13.4397 21.9185 13.0731 21.817 12.7212ZM2.02976 22.0554V13.7271H4.31323V22.0554H2.02976ZM19.9705 11.7036L19.3531 12.2608L19.7449 13.0057C19.874 13.251 19.941 13.5266 19.9395 13.8063C19.9395 14.2901 19.7365 14.7505 19.3869 15.0672L18.7695 15.6244L19.1614 16.3693C19.2905 16.6146 19.3574 16.8901 19.3559 17.1698C19.3559 17.6537 19.1529 18.1141 18.8034 18.4308L18.186 18.988L18.5778 19.7328C18.7069 19.9782 18.7739 20.2537 18.7723 20.5334C18.7723 21.1903 18.4002 21.7827 17.8251 22.0525H6.11744V13.6332L8.92244 3.06156C8.99477 2.79059 9.15004 2.55154 9.36471 2.38062C9.57938 2.2097 9.84177 2.11622 10.1121 2.11436C10.3263 2.11436 10.5378 2.17887 10.7069 2.31084C10.986 2.52784 11.1354 2.85628 11.1185 3.20525L10.8479 9.02334H19.7111C20.2129 9.34298 20.523 9.88256 20.523 10.4427C20.523 10.9265 20.32 11.384 19.9705 11.7036Z" fill="white"/>
</svg>
