<svg width="1411" height="438" viewBox="0 0 1411 438" fill="none" xmlns="http://www.w3.org/2000/svg">
<mask id="mask0_1_237" style="mask-type:alpha" maskUnits="userSpaceOnUse" x="0" y="0" width="1411" height="438">
<rect width="1411" height="438" fill="#45B871"/>
</mask>
<g mask="url(#mask0_1_237)">
<rect y="-9" width="1425" height="452" fill="#45B871"/>
<path d="M-10 195.39C41.5045 258.782 131.164 412.216 156.556 470.956L205.702 444.937C191.122 406.106 153.902 318.389 121.663 278.178C81.3636 227.914 17.4744 153.404 21.406 -6.85031H95.1243C82.1827 29.616 71.7311 123.127 133.458 205.443C210.616 308.337 267.134 436.658 266.642 453.807H310.382C304.648 423.255 286.595 352.687 260.253 314.841C227.326 267.534 108.398 118.515 160.984 -6.85031H236.668C212.259 32.1785 188.599 136.373 289.249 264.577C332.89 312.831 358.872 410.836 366.408 453.807L413.587 444.937C413.751 409.654 402.186 324.185 354.613 264.577C295.147 190.068 254.72 101.957 318.609 -7.44165H399.051C369.564 25.6737 322.177 108.344 371.322 195.39C432.754 304.197 470.596 347.957 463.224 453.807L506.964 444.937C504.179 399.009 490.746 297.574 459.293 259.255C419.976 211.356 349.667 94.861 474.497 -7.44165L544.447 -7.44146M544.447 -7.44146C507.915 27.2508 438.258 105.505 454.378 162.274C474.528 233.236 529.571 259.255 530.554 317.207C531.537 375.159 535.468 436.067 550.212 444.937C557.289 444.937 584.286 444.937 596.9 444.937C585.433 423.057 564.563 367.826 572.819 321.937C583.14 264.577 506.964 220.226 506.964 169.962C506.964 119.698 566.922 14.4381 636.217 -7.44165L544.447 -7.44146ZM772.35 104.323C848.034 156.952 849.727 349.656 794.957 349.656C753.731 349.656 728.814 327.601 692.243 349.656C674.983 360.064 707.829 272.465 663.247 229.096C555.431 124.217 718.29 78.5674 772.35 104.323Z" stroke="#95CDDC" stroke-opacity="0.35" stroke-width="2"/>
<path d="M704.489 35.6486C663.552 46.0746 613.299 108.314 593.29 138.131C560.225 191.209 596.57 238.442 618.875 255.423C632.16 416.552 665.126 392.264 682.839 394.041C700.553 395.818 752.708 367.384 810.275 381.009C867.843 394.634 873.747 340.727 889.492 270.825C905.237 200.924 863.415 157.68 854.066 103.18C839.797 -19.4431 755.66 22.6162 704.489 35.6486Z" stroke="#95CDDC" stroke-opacity="0.35" stroke-width="2"/>
<path d="M879 -8.50488C898.362 34.5626 937.374 128.047 940.524 171.667C944.462 226.193 980.52 332.486 916.034 443.316H983.596C987.698 420.399 996.543 362.271 998.119 321.021C1000.09 269.458 985.812 164.555 976.459 134.922C967.106 105.288 923.87 -8.50488 934.05 -8.50488C945.561 -8.50488 961.075 -8.50488 980.397 -8.50488C1000.25 56.0964 1039.76 189.803 1038.98 207.82C1037.99 230.342 1043.15 429.193 1033.14 443.316C1033.82 440.945 1067.06 443.316 1083.19 443.316C1085.32 383.061 1087.41 253.93 1082.3 227.379C1075.9 194.189 1027.96 6.90458 1017.63 -8.50488C1020.38 -8.50488 1058.48 -8.50488 1077.18 -8.50488C1084.4 33.3773 1103.21 68.1591 1125.61 142.626C1141.86 218.488 1163.71 386.419 1124.73 443.316H1175.27C1186.59 401.038 1207.62 302.648 1202.9 255.234C1196.99 195.967 1146.78 51.9476 1133.98 -8.50488H1186.16C1202.9 42.2673 1236.37 151.635 1236.37 182.928C1236.37 222.045 1261.81 410.719 1229.32 443.316H1285.87C1285.87 407.558 1285.6 326.829 1285.6 286.053C1285.6 235.083 1276.74 125.439 1253.11 87.508C1234.21 57.1632 1229.48 10.8557 1229.48 -8.50488H1273.78M1273.78 -8.50488C1296.1 60.4426 1339.16 211.139 1332.86 262.346C1324.98 326.355 1340.22 424.35 1327.91 443.316H1377.46M1273.78 -8.50488C1295.38 -8.50488 1302.39 -8.50488 1327.44 -8.50488M1377.46 443.316C1391.69 443.316 1376.17 227.379 1376.17 161.488C1376.17 108.775 1343.69 26.1957 1327.44 -8.50488M1377.46 443.316H1425L1424 286.053C1428 238.836 1407.32 70.0072 1396.47 -8.50488H1327.44" stroke="#95CDDC" stroke-opacity="0.35" stroke-width="2"/>
</g>
</svg>
